<mxfile host="Electron" modified="2024-06-19T10:42:31.518Z" agent="Mozilla/5.0 (Macintosh; Intel Mac OS X 10_15_7) AppleWebKit/537.36 (KHTML, like Gecko) draw.io/24.0.4 Chrome/120.0.6099.109 Electron/28.1.0 Safari/537.36" etag="B88TSW-AlPu6wA2RtU3p" version="24.0.4" type="device">
  <diagram name="Page-1" id="vTl2VZf6Phf7d43htwPM">
    <mxGraphModel dx="2390" dy="1623" grid="1" gridSize="10" guides="1" tooltips="1" connect="1" arrows="1" fold="1" page="1" pageScale="1" pageWidth="827" pageHeight="1169" math="0" shadow="0">
      <root>
        <mxCell id="0" />
        <mxCell id="1" parent="0" />
        <mxCell id="vGcXtfVgCB9W5I0RSvsS-87" style="edgeStyle=orthogonalEdgeStyle;rounded=0;orthogonalLoop=1;jettySize=auto;html=1;exitX=0;exitY=0.5;exitDx=0;exitDy=0;exitPerimeter=0;entryX=0.25;entryY=0;entryDx=0;entryDy=0;" edge="1" parent="1" source="vGcXtfVgCB9W5I0RSvsS-1" target="vGcXtfVgCB9W5I0RSvsS-79">
          <mxGeometry relative="1" as="geometry" />
        </mxCell>
        <mxCell id="vGcXtfVgCB9W5I0RSvsS-1" value="" style="verticalLabelPosition=bottom;shadow=0;dashed=0;align=center;html=1;verticalAlign=top;shape=mxgraph.electrical.radio.microphone_1;rotation=-90;" vertex="1" parent="1">
          <mxGeometry x="130" y="260" width="40" height="40" as="geometry" />
        </mxCell>
        <mxCell id="vGcXtfVgCB9W5I0RSvsS-88" style="edgeStyle=orthogonalEdgeStyle;rounded=0;orthogonalLoop=1;jettySize=auto;html=1;exitX=0;exitY=0.5;exitDx=0;exitDy=0;exitPerimeter=0;entryX=0.75;entryY=0;entryDx=0;entryDy=0;" edge="1" parent="1" source="vGcXtfVgCB9W5I0RSvsS-2" target="vGcXtfVgCB9W5I0RSvsS-79">
          <mxGeometry relative="1" as="geometry" />
        </mxCell>
        <mxCell id="vGcXtfVgCB9W5I0RSvsS-2" value="" style="verticalLabelPosition=bottom;shadow=0;dashed=0;align=center;html=1;verticalAlign=top;shape=mxgraph.electrical.radio.microphone_1;rotation=-90;" vertex="1" parent="1">
          <mxGeometry x="270" y="260" width="40" height="40" as="geometry" />
        </mxCell>
        <mxCell id="vGcXtfVgCB9W5I0RSvsS-12" style="edgeStyle=orthogonalEdgeStyle;rounded=0;orthogonalLoop=1;jettySize=auto;html=1;exitX=0.5;exitY=1;exitDx=0;exitDy=0;" edge="1" parent="1">
          <mxGeometry relative="1" as="geometry">
            <mxPoint x="219" y="489.9999999999999" as="sourcePoint" />
            <mxPoint x="219" y="559.9999999999999" as="targetPoint" />
          </mxGeometry>
        </mxCell>
        <mxCell id="vGcXtfVgCB9W5I0RSvsS-13" style="edgeStyle=orthogonalEdgeStyle;rounded=0;orthogonalLoop=1;jettySize=auto;html=1;exitX=0.25;exitY=1;exitDx=0;exitDy=0;entryX=0.25;entryY=0;entryDx=0;entryDy=0;" edge="1" parent="1">
          <mxGeometry relative="1" as="geometry">
            <mxPoint x="156" y="489.9999999999999" as="sourcePoint" />
            <mxPoint x="156" y="559.9999999999999" as="targetPoint" />
          </mxGeometry>
        </mxCell>
        <mxCell id="vGcXtfVgCB9W5I0RSvsS-14" style="edgeStyle=orthogonalEdgeStyle;rounded=0;orthogonalLoop=1;jettySize=auto;html=1;exitX=0.75;exitY=1;exitDx=0;exitDy=0;entryX=0.75;entryY=0;entryDx=0;entryDy=0;" edge="1" parent="1">
          <mxGeometry relative="1" as="geometry">
            <mxPoint x="288" y="489.9999999999999" as="sourcePoint" />
            <mxPoint x="288" y="559.9999999999999" as="targetPoint" />
          </mxGeometry>
        </mxCell>
        <mxCell id="vGcXtfVgCB9W5I0RSvsS-3" value="Plugboard input (8x8)" style="rounded=0;whiteSpace=wrap;html=1;" vertex="1" parent="1">
          <mxGeometry x="80" y="460" width="280" height="30" as="geometry" />
        </mxCell>
        <mxCell id="vGcXtfVgCB9W5I0RSvsS-11" value="Rotore_1_input (8x8)" style="rounded=0;whiteSpace=wrap;html=1;" vertex="1" parent="1">
          <mxGeometry x="80" y="560" width="280" height="30" as="geometry" />
        </mxCell>
        <mxCell id="vGcXtfVgCB9W5I0RSvsS-15" style="edgeStyle=orthogonalEdgeStyle;rounded=0;orthogonalLoop=1;jettySize=auto;html=1;exitX=0.25;exitY=1;exitDx=0;exitDy=0;entryX=0.25;entryY=0;entryDx=0;entryDy=0;" edge="1" parent="1">
          <mxGeometry relative="1" as="geometry">
            <mxPoint x="187" y="490" as="sourcePoint" />
            <mxPoint x="187" y="560" as="targetPoint" />
          </mxGeometry>
        </mxCell>
        <mxCell id="vGcXtfVgCB9W5I0RSvsS-16" style="edgeStyle=orthogonalEdgeStyle;rounded=0;orthogonalLoop=1;jettySize=auto;html=1;exitX=0.25;exitY=1;exitDx=0;exitDy=0;entryX=0.25;entryY=0;entryDx=0;entryDy=0;" edge="1" parent="1">
          <mxGeometry relative="1" as="geometry">
            <mxPoint x="253" y="490" as="sourcePoint" />
            <mxPoint x="253" y="560" as="targetPoint" />
          </mxGeometry>
        </mxCell>
        <mxCell id="vGcXtfVgCB9W5I0RSvsS-17" style="edgeStyle=orthogonalEdgeStyle;rounded=0;orthogonalLoop=1;jettySize=auto;html=1;exitX=0.25;exitY=1;exitDx=0;exitDy=0;entryX=0.25;entryY=0;entryDx=0;entryDy=0;" edge="1" parent="1">
          <mxGeometry relative="1" as="geometry">
            <mxPoint x="127" y="490" as="sourcePoint" />
            <mxPoint x="127" y="560" as="targetPoint" />
          </mxGeometry>
        </mxCell>
        <mxCell id="vGcXtfVgCB9W5I0RSvsS-18" style="edgeStyle=orthogonalEdgeStyle;rounded=0;orthogonalLoop=1;jettySize=auto;html=1;exitX=0.25;exitY=1;exitDx=0;exitDy=0;entryX=0.25;entryY=0;entryDx=0;entryDy=0;" edge="1" parent="1">
          <mxGeometry relative="1" as="geometry">
            <mxPoint x="320" y="490" as="sourcePoint" />
            <mxPoint x="320" y="560" as="targetPoint" />
          </mxGeometry>
        </mxCell>
        <mxCell id="vGcXtfVgCB9W5I0RSvsS-19" style="edgeStyle=orthogonalEdgeStyle;rounded=0;orthogonalLoop=1;jettySize=auto;html=1;exitX=0.25;exitY=1;exitDx=0;exitDy=0;entryX=0.25;entryY=0;entryDx=0;entryDy=0;" edge="1" parent="1">
          <mxGeometry relative="1" as="geometry">
            <mxPoint x="100" y="490" as="sourcePoint" />
            <mxPoint x="100" y="560" as="targetPoint" />
          </mxGeometry>
        </mxCell>
        <mxCell id="vGcXtfVgCB9W5I0RSvsS-20" value="Rotore_2_input (8x8)" style="rounded=0;whiteSpace=wrap;html=1;" vertex="1" parent="1">
          <mxGeometry x="80" y="660" width="280" height="30" as="geometry" />
        </mxCell>
        <mxCell id="vGcXtfVgCB9W5I0RSvsS-21" style="edgeStyle=orthogonalEdgeStyle;rounded=0;orthogonalLoop=1;jettySize=auto;html=1;exitX=0.5;exitY=1;exitDx=0;exitDy=0;" edge="1" parent="1">
          <mxGeometry relative="1" as="geometry">
            <mxPoint x="219" y="589.9999999999999" as="sourcePoint" />
            <mxPoint x="219" y="659.9999999999999" as="targetPoint" />
          </mxGeometry>
        </mxCell>
        <mxCell id="vGcXtfVgCB9W5I0RSvsS-22" style="edgeStyle=orthogonalEdgeStyle;rounded=0;orthogonalLoop=1;jettySize=auto;html=1;exitX=0.25;exitY=1;exitDx=0;exitDy=0;entryX=0.25;entryY=0;entryDx=0;entryDy=0;" edge="1" parent="1">
          <mxGeometry relative="1" as="geometry">
            <mxPoint x="156" y="589.9999999999999" as="sourcePoint" />
            <mxPoint x="156" y="659.9999999999999" as="targetPoint" />
          </mxGeometry>
        </mxCell>
        <mxCell id="vGcXtfVgCB9W5I0RSvsS-23" style="edgeStyle=orthogonalEdgeStyle;rounded=0;orthogonalLoop=1;jettySize=auto;html=1;exitX=0.75;exitY=1;exitDx=0;exitDy=0;entryX=0.75;entryY=0;entryDx=0;entryDy=0;" edge="1" parent="1">
          <mxGeometry relative="1" as="geometry">
            <mxPoint x="288" y="589.9999999999999" as="sourcePoint" />
            <mxPoint x="288" y="659.9999999999999" as="targetPoint" />
          </mxGeometry>
        </mxCell>
        <mxCell id="vGcXtfVgCB9W5I0RSvsS-24" style="edgeStyle=orthogonalEdgeStyle;rounded=0;orthogonalLoop=1;jettySize=auto;html=1;exitX=0.25;exitY=1;exitDx=0;exitDy=0;entryX=0.25;entryY=0;entryDx=0;entryDy=0;" edge="1" parent="1">
          <mxGeometry relative="1" as="geometry">
            <mxPoint x="187" y="590" as="sourcePoint" />
            <mxPoint x="187" y="660" as="targetPoint" />
          </mxGeometry>
        </mxCell>
        <mxCell id="vGcXtfVgCB9W5I0RSvsS-25" style="edgeStyle=orthogonalEdgeStyle;rounded=0;orthogonalLoop=1;jettySize=auto;html=1;exitX=0.25;exitY=1;exitDx=0;exitDy=0;entryX=0.25;entryY=0;entryDx=0;entryDy=0;" edge="1" parent="1">
          <mxGeometry relative="1" as="geometry">
            <mxPoint x="253" y="590" as="sourcePoint" />
            <mxPoint x="253" y="660" as="targetPoint" />
          </mxGeometry>
        </mxCell>
        <mxCell id="vGcXtfVgCB9W5I0RSvsS-26" style="edgeStyle=orthogonalEdgeStyle;rounded=0;orthogonalLoop=1;jettySize=auto;html=1;exitX=0.25;exitY=1;exitDx=0;exitDy=0;entryX=0.25;entryY=0;entryDx=0;entryDy=0;" edge="1" parent="1">
          <mxGeometry relative="1" as="geometry">
            <mxPoint x="127" y="590" as="sourcePoint" />
            <mxPoint x="127" y="660" as="targetPoint" />
          </mxGeometry>
        </mxCell>
        <mxCell id="vGcXtfVgCB9W5I0RSvsS-27" style="edgeStyle=orthogonalEdgeStyle;rounded=0;orthogonalLoop=1;jettySize=auto;html=1;exitX=0.25;exitY=1;exitDx=0;exitDy=0;entryX=0.25;entryY=0;entryDx=0;entryDy=0;" edge="1" parent="1">
          <mxGeometry relative="1" as="geometry">
            <mxPoint x="320" y="590" as="sourcePoint" />
            <mxPoint x="320" y="660" as="targetPoint" />
          </mxGeometry>
        </mxCell>
        <mxCell id="vGcXtfVgCB9W5I0RSvsS-28" style="edgeStyle=orthogonalEdgeStyle;rounded=0;orthogonalLoop=1;jettySize=auto;html=1;exitX=0.25;exitY=1;exitDx=0;exitDy=0;entryX=0.25;entryY=0;entryDx=0;entryDy=0;" edge="1" parent="1">
          <mxGeometry relative="1" as="geometry">
            <mxPoint x="100" y="590" as="sourcePoint" />
            <mxPoint x="100" y="660" as="targetPoint" />
          </mxGeometry>
        </mxCell>
        <mxCell id="vGcXtfVgCB9W5I0RSvsS-48" style="edgeStyle=orthogonalEdgeStyle;rounded=0;orthogonalLoop=1;jettySize=auto;html=1;exitX=0.5;exitY=1;exitDx=0;exitDy=0;entryX=0.5;entryY=1;entryDx=0;entryDy=0;" edge="1" parent="1" source="vGcXtfVgCB9W5I0RSvsS-29" target="vGcXtfVgCB9W5I0RSvsS-38">
          <mxGeometry relative="1" as="geometry">
            <Array as="points">
              <mxPoint x="220" y="840" />
              <mxPoint x="540" y="840" />
            </Array>
          </mxGeometry>
        </mxCell>
        <mxCell id="vGcXtfVgCB9W5I0RSvsS-29" value="Rotore_3_input (8x8)" style="rounded=0;whiteSpace=wrap;html=1;" vertex="1" parent="1">
          <mxGeometry x="80" y="760" width="280" height="30" as="geometry" />
        </mxCell>
        <mxCell id="vGcXtfVgCB9W5I0RSvsS-30" style="edgeStyle=orthogonalEdgeStyle;rounded=0;orthogonalLoop=1;jettySize=auto;html=1;exitX=0.5;exitY=1;exitDx=0;exitDy=0;" edge="1" parent="1">
          <mxGeometry relative="1" as="geometry">
            <mxPoint x="219" y="689.9999999999999" as="sourcePoint" />
            <mxPoint x="219" y="759.9999999999999" as="targetPoint" />
          </mxGeometry>
        </mxCell>
        <mxCell id="vGcXtfVgCB9W5I0RSvsS-31" style="edgeStyle=orthogonalEdgeStyle;rounded=0;orthogonalLoop=1;jettySize=auto;html=1;exitX=0.25;exitY=1;exitDx=0;exitDy=0;entryX=0.25;entryY=0;entryDx=0;entryDy=0;" edge="1" parent="1">
          <mxGeometry relative="1" as="geometry">
            <mxPoint x="156" y="689.9999999999999" as="sourcePoint" />
            <mxPoint x="156" y="759.9999999999999" as="targetPoint" />
          </mxGeometry>
        </mxCell>
        <mxCell id="vGcXtfVgCB9W5I0RSvsS-32" style="edgeStyle=orthogonalEdgeStyle;rounded=0;orthogonalLoop=1;jettySize=auto;html=1;exitX=0.75;exitY=1;exitDx=0;exitDy=0;entryX=0.75;entryY=0;entryDx=0;entryDy=0;" edge="1" parent="1">
          <mxGeometry relative="1" as="geometry">
            <mxPoint x="288" y="689.9999999999999" as="sourcePoint" />
            <mxPoint x="288" y="759.9999999999999" as="targetPoint" />
          </mxGeometry>
        </mxCell>
        <mxCell id="vGcXtfVgCB9W5I0RSvsS-33" style="edgeStyle=orthogonalEdgeStyle;rounded=0;orthogonalLoop=1;jettySize=auto;html=1;exitX=0.25;exitY=1;exitDx=0;exitDy=0;entryX=0.25;entryY=0;entryDx=0;entryDy=0;" edge="1" parent="1">
          <mxGeometry relative="1" as="geometry">
            <mxPoint x="187" y="690" as="sourcePoint" />
            <mxPoint x="187" y="760" as="targetPoint" />
          </mxGeometry>
        </mxCell>
        <mxCell id="vGcXtfVgCB9W5I0RSvsS-34" style="edgeStyle=orthogonalEdgeStyle;rounded=0;orthogonalLoop=1;jettySize=auto;html=1;exitX=0.25;exitY=1;exitDx=0;exitDy=0;entryX=0.25;entryY=0;entryDx=0;entryDy=0;" edge="1" parent="1">
          <mxGeometry relative="1" as="geometry">
            <mxPoint x="253" y="690" as="sourcePoint" />
            <mxPoint x="253" y="760" as="targetPoint" />
          </mxGeometry>
        </mxCell>
        <mxCell id="vGcXtfVgCB9W5I0RSvsS-35" style="edgeStyle=orthogonalEdgeStyle;rounded=0;orthogonalLoop=1;jettySize=auto;html=1;exitX=0.25;exitY=1;exitDx=0;exitDy=0;entryX=0.25;entryY=0;entryDx=0;entryDy=0;" edge="1" parent="1">
          <mxGeometry relative="1" as="geometry">
            <mxPoint x="127" y="690" as="sourcePoint" />
            <mxPoint x="127" y="760" as="targetPoint" />
          </mxGeometry>
        </mxCell>
        <mxCell id="vGcXtfVgCB9W5I0RSvsS-36" style="edgeStyle=orthogonalEdgeStyle;rounded=0;orthogonalLoop=1;jettySize=auto;html=1;exitX=0.25;exitY=1;exitDx=0;exitDy=0;entryX=0.25;entryY=0;entryDx=0;entryDy=0;" edge="1" parent="1">
          <mxGeometry relative="1" as="geometry">
            <mxPoint x="320" y="690" as="sourcePoint" />
            <mxPoint x="320" y="760" as="targetPoint" />
          </mxGeometry>
        </mxCell>
        <mxCell id="vGcXtfVgCB9W5I0RSvsS-37" style="edgeStyle=orthogonalEdgeStyle;rounded=0;orthogonalLoop=1;jettySize=auto;html=1;exitX=0.25;exitY=1;exitDx=0;exitDy=0;entryX=0.25;entryY=0;entryDx=0;entryDy=0;" edge="1" parent="1">
          <mxGeometry relative="1" as="geometry">
            <mxPoint x="100" y="690" as="sourcePoint" />
            <mxPoint x="100" y="760" as="targetPoint" />
          </mxGeometry>
        </mxCell>
        <mxCell id="vGcXtfVgCB9W5I0RSvsS-38" value="Rotore_3_output (8x8)" style="rounded=0;whiteSpace=wrap;html=1;" vertex="1" parent="1">
          <mxGeometry x="400" y="760" width="280" height="30" as="geometry" />
        </mxCell>
        <mxCell id="vGcXtfVgCB9W5I0RSvsS-39" style="edgeStyle=orthogonalEdgeStyle;rounded=0;orthogonalLoop=1;jettySize=auto;html=1;exitX=0.5;exitY=1;exitDx=0;exitDy=0;endArrow=none;endFill=0;startArrow=classic;startFill=1;" edge="1" parent="1">
          <mxGeometry relative="1" as="geometry">
            <mxPoint x="539" y="689.9999999999999" as="sourcePoint" />
            <mxPoint x="539" y="759.9999999999999" as="targetPoint" />
          </mxGeometry>
        </mxCell>
        <mxCell id="vGcXtfVgCB9W5I0RSvsS-40" style="edgeStyle=orthogonalEdgeStyle;rounded=0;orthogonalLoop=1;jettySize=auto;html=1;exitX=0.25;exitY=1;exitDx=0;exitDy=0;entryX=0.25;entryY=0;entryDx=0;entryDy=0;endArrow=none;endFill=0;startArrow=classic;startFill=1;" edge="1" parent="1">
          <mxGeometry relative="1" as="geometry">
            <mxPoint x="476" y="689.9999999999999" as="sourcePoint" />
            <mxPoint x="476" y="759.9999999999999" as="targetPoint" />
          </mxGeometry>
        </mxCell>
        <mxCell id="vGcXtfVgCB9W5I0RSvsS-41" style="edgeStyle=orthogonalEdgeStyle;rounded=0;orthogonalLoop=1;jettySize=auto;html=1;exitX=0.75;exitY=1;exitDx=0;exitDy=0;entryX=0.75;entryY=0;entryDx=0;entryDy=0;endArrow=none;endFill=0;startArrow=classic;startFill=1;" edge="1" parent="1">
          <mxGeometry relative="1" as="geometry">
            <mxPoint x="608" y="689.9999999999999" as="sourcePoint" />
            <mxPoint x="608" y="759.9999999999999" as="targetPoint" />
          </mxGeometry>
        </mxCell>
        <mxCell id="vGcXtfVgCB9W5I0RSvsS-42" style="edgeStyle=orthogonalEdgeStyle;rounded=0;orthogonalLoop=1;jettySize=auto;html=1;exitX=0.25;exitY=1;exitDx=0;exitDy=0;entryX=0.25;entryY=0;entryDx=0;entryDy=0;endArrow=none;endFill=0;startArrow=classic;startFill=1;" edge="1" parent="1">
          <mxGeometry relative="1" as="geometry">
            <mxPoint x="507" y="690" as="sourcePoint" />
            <mxPoint x="507" y="760" as="targetPoint" />
          </mxGeometry>
        </mxCell>
        <mxCell id="vGcXtfVgCB9W5I0RSvsS-43" style="edgeStyle=orthogonalEdgeStyle;rounded=0;orthogonalLoop=1;jettySize=auto;html=1;exitX=0.25;exitY=1;exitDx=0;exitDy=0;entryX=0.25;entryY=0;entryDx=0;entryDy=0;endArrow=none;endFill=0;startArrow=classic;startFill=1;" edge="1" parent="1">
          <mxGeometry relative="1" as="geometry">
            <mxPoint x="573" y="690" as="sourcePoint" />
            <mxPoint x="573" y="760" as="targetPoint" />
          </mxGeometry>
        </mxCell>
        <mxCell id="vGcXtfVgCB9W5I0RSvsS-44" style="edgeStyle=orthogonalEdgeStyle;rounded=0;orthogonalLoop=1;jettySize=auto;html=1;exitX=0.25;exitY=1;exitDx=0;exitDy=0;entryX=0.25;entryY=0;entryDx=0;entryDy=0;endArrow=none;endFill=0;startArrow=classic;startFill=1;" edge="1" parent="1">
          <mxGeometry relative="1" as="geometry">
            <mxPoint x="447" y="690" as="sourcePoint" />
            <mxPoint x="447" y="760" as="targetPoint" />
          </mxGeometry>
        </mxCell>
        <mxCell id="vGcXtfVgCB9W5I0RSvsS-45" style="edgeStyle=orthogonalEdgeStyle;rounded=0;orthogonalLoop=1;jettySize=auto;html=1;exitX=0.25;exitY=1;exitDx=0;exitDy=0;entryX=0.25;entryY=0;entryDx=0;entryDy=0;endArrow=none;endFill=0;startArrow=classic;startFill=1;" edge="1" parent="1">
          <mxGeometry relative="1" as="geometry">
            <mxPoint x="640" y="690" as="sourcePoint" />
            <mxPoint x="640" y="760" as="targetPoint" />
          </mxGeometry>
        </mxCell>
        <mxCell id="vGcXtfVgCB9W5I0RSvsS-46" style="edgeStyle=orthogonalEdgeStyle;rounded=0;orthogonalLoop=1;jettySize=auto;html=1;exitX=0.25;exitY=1;exitDx=0;exitDy=0;entryX=0.25;entryY=0;entryDx=0;entryDy=0;endArrow=none;endFill=0;startArrow=classic;startFill=1;" edge="1" parent="1">
          <mxGeometry relative="1" as="geometry">
            <mxPoint x="420" y="690" as="sourcePoint" />
            <mxPoint x="420" y="760" as="targetPoint" />
          </mxGeometry>
        </mxCell>
        <mxCell id="vGcXtfVgCB9W5I0RSvsS-49" style="edgeStyle=orthogonalEdgeStyle;rounded=0;orthogonalLoop=1;jettySize=auto;html=1;exitX=0.5;exitY=1;exitDx=0;exitDy=0;entryX=0.5;entryY=1;entryDx=0;entryDy=0;" edge="1" parent="1">
          <mxGeometry relative="1" as="geometry">
            <mxPoint x="195" y="790" as="sourcePoint" />
            <mxPoint x="515" y="790" as="targetPoint" />
            <Array as="points">
              <mxPoint x="185" y="790" />
              <mxPoint x="185" y="850" />
              <mxPoint x="515" y="850" />
            </Array>
          </mxGeometry>
        </mxCell>
        <mxCell id="vGcXtfVgCB9W5I0RSvsS-50" style="edgeStyle=orthogonalEdgeStyle;rounded=0;orthogonalLoop=1;jettySize=auto;html=1;exitX=0.5;exitY=1;exitDx=0;exitDy=0;entryX=0.5;entryY=1;entryDx=0;entryDy=0;" edge="1" parent="1">
          <mxGeometry relative="1" as="geometry">
            <mxPoint x="157" y="790" as="sourcePoint" />
            <mxPoint x="477" y="790" as="targetPoint" />
            <Array as="points">
              <mxPoint x="157" y="860" />
              <mxPoint x="477" y="860" />
            </Array>
          </mxGeometry>
        </mxCell>
        <mxCell id="vGcXtfVgCB9W5I0RSvsS-51" style="edgeStyle=orthogonalEdgeStyle;rounded=0;orthogonalLoop=1;jettySize=auto;html=1;exitX=0.5;exitY=1;exitDx=0;exitDy=0;entryX=0.5;entryY=1;entryDx=0;entryDy=0;" edge="1" parent="1">
          <mxGeometry relative="1" as="geometry">
            <mxPoint x="130" y="790" as="sourcePoint" />
            <mxPoint x="450" y="790" as="targetPoint" />
            <Array as="points">
              <mxPoint x="130" y="870" />
              <mxPoint x="450" y="870" />
            </Array>
          </mxGeometry>
        </mxCell>
        <mxCell id="vGcXtfVgCB9W5I0RSvsS-52" style="edgeStyle=orthogonalEdgeStyle;rounded=0;orthogonalLoop=1;jettySize=auto;html=1;exitX=0.5;exitY=1;exitDx=0;exitDy=0;entryX=0.5;entryY=1;entryDx=0;entryDy=0;" edge="1" parent="1">
          <mxGeometry relative="1" as="geometry">
            <mxPoint x="100" y="790" as="sourcePoint" />
            <mxPoint x="420" y="790" as="targetPoint" />
            <Array as="points">
              <mxPoint x="100" y="880" />
              <mxPoint x="420" y="880" />
            </Array>
          </mxGeometry>
        </mxCell>
        <mxCell id="vGcXtfVgCB9W5I0RSvsS-53" style="edgeStyle=orthogonalEdgeStyle;rounded=0;orthogonalLoop=1;jettySize=auto;html=1;exitX=0.5;exitY=1;exitDx=0;exitDy=0;entryX=0.5;entryY=1;entryDx=0;entryDy=0;" edge="1" parent="1">
          <mxGeometry relative="1" as="geometry">
            <mxPoint x="250" y="790" as="sourcePoint" />
            <mxPoint x="570" y="790" as="targetPoint" />
            <Array as="points">
              <mxPoint x="250" y="830" />
              <mxPoint x="570" y="830" />
            </Array>
          </mxGeometry>
        </mxCell>
        <mxCell id="vGcXtfVgCB9W5I0RSvsS-54" style="edgeStyle=orthogonalEdgeStyle;rounded=0;orthogonalLoop=1;jettySize=auto;html=1;exitX=0.5;exitY=1;exitDx=0;exitDy=0;entryX=0.5;entryY=1;entryDx=0;entryDy=0;" edge="1" parent="1">
          <mxGeometry relative="1" as="geometry">
            <mxPoint x="290" y="790" as="sourcePoint" />
            <mxPoint x="610" y="790" as="targetPoint" />
            <Array as="points">
              <mxPoint x="290" y="820" />
              <mxPoint x="610" y="820" />
            </Array>
          </mxGeometry>
        </mxCell>
        <mxCell id="vGcXtfVgCB9W5I0RSvsS-55" style="edgeStyle=orthogonalEdgeStyle;rounded=0;orthogonalLoop=1;jettySize=auto;html=1;exitX=0.5;exitY=1;exitDx=0;exitDy=0;entryX=0.5;entryY=1;entryDx=0;entryDy=0;" edge="1" parent="1">
          <mxGeometry relative="1" as="geometry">
            <mxPoint x="320" y="790" as="sourcePoint" />
            <mxPoint x="640" y="790" as="targetPoint" />
            <Array as="points">
              <mxPoint x="320" y="810" />
              <mxPoint x="640" y="810" />
            </Array>
          </mxGeometry>
        </mxCell>
        <mxCell id="vGcXtfVgCB9W5I0RSvsS-56" value="Rotore_2_output (8x8)" style="rounded=0;whiteSpace=wrap;html=1;" vertex="1" parent="1">
          <mxGeometry x="400" y="660" width="280" height="30" as="geometry" />
        </mxCell>
        <mxCell id="vGcXtfVgCB9W5I0RSvsS-58" style="edgeStyle=orthogonalEdgeStyle;rounded=0;orthogonalLoop=1;jettySize=auto;html=1;exitX=0.5;exitY=1;exitDx=0;exitDy=0;endArrow=none;endFill=0;startArrow=classic;startFill=1;" edge="1" parent="1">
          <mxGeometry relative="1" as="geometry">
            <mxPoint x="539" y="589.9999999999999" as="sourcePoint" />
            <mxPoint x="539" y="659.9999999999999" as="targetPoint" />
          </mxGeometry>
        </mxCell>
        <mxCell id="vGcXtfVgCB9W5I0RSvsS-59" style="edgeStyle=orthogonalEdgeStyle;rounded=0;orthogonalLoop=1;jettySize=auto;html=1;exitX=0.25;exitY=1;exitDx=0;exitDy=0;entryX=0.25;entryY=0;entryDx=0;entryDy=0;endArrow=none;endFill=0;startArrow=classic;startFill=1;" edge="1" parent="1">
          <mxGeometry relative="1" as="geometry">
            <mxPoint x="476" y="589.9999999999999" as="sourcePoint" />
            <mxPoint x="476" y="659.9999999999999" as="targetPoint" />
          </mxGeometry>
        </mxCell>
        <mxCell id="vGcXtfVgCB9W5I0RSvsS-60" style="edgeStyle=orthogonalEdgeStyle;rounded=0;orthogonalLoop=1;jettySize=auto;html=1;exitX=0.75;exitY=1;exitDx=0;exitDy=0;entryX=0.75;entryY=0;entryDx=0;entryDy=0;endArrow=none;endFill=0;startArrow=classic;startFill=1;" edge="1" parent="1">
          <mxGeometry relative="1" as="geometry">
            <mxPoint x="608" y="589.9999999999999" as="sourcePoint" />
            <mxPoint x="608" y="659.9999999999999" as="targetPoint" />
          </mxGeometry>
        </mxCell>
        <mxCell id="vGcXtfVgCB9W5I0RSvsS-61" style="edgeStyle=orthogonalEdgeStyle;rounded=0;orthogonalLoop=1;jettySize=auto;html=1;exitX=0.25;exitY=1;exitDx=0;exitDy=0;entryX=0.25;entryY=0;entryDx=0;entryDy=0;endArrow=none;endFill=0;startArrow=classic;startFill=1;" edge="1" parent="1">
          <mxGeometry relative="1" as="geometry">
            <mxPoint x="507" y="590" as="sourcePoint" />
            <mxPoint x="507" y="660" as="targetPoint" />
          </mxGeometry>
        </mxCell>
        <mxCell id="vGcXtfVgCB9W5I0RSvsS-62" style="edgeStyle=orthogonalEdgeStyle;rounded=0;orthogonalLoop=1;jettySize=auto;html=1;exitX=0.25;exitY=1;exitDx=0;exitDy=0;entryX=0.25;entryY=0;entryDx=0;entryDy=0;endArrow=none;endFill=0;startArrow=classic;startFill=1;" edge="1" parent="1">
          <mxGeometry relative="1" as="geometry">
            <mxPoint x="573" y="590" as="sourcePoint" />
            <mxPoint x="573" y="660" as="targetPoint" />
          </mxGeometry>
        </mxCell>
        <mxCell id="vGcXtfVgCB9W5I0RSvsS-63" style="edgeStyle=orthogonalEdgeStyle;rounded=0;orthogonalLoop=1;jettySize=auto;html=1;exitX=0.25;exitY=1;exitDx=0;exitDy=0;entryX=0.25;entryY=0;entryDx=0;entryDy=0;endArrow=none;endFill=0;startArrow=classic;startFill=1;" edge="1" parent="1">
          <mxGeometry relative="1" as="geometry">
            <mxPoint x="447" y="590" as="sourcePoint" />
            <mxPoint x="447" y="660" as="targetPoint" />
          </mxGeometry>
        </mxCell>
        <mxCell id="vGcXtfVgCB9W5I0RSvsS-64" style="edgeStyle=orthogonalEdgeStyle;rounded=0;orthogonalLoop=1;jettySize=auto;html=1;exitX=0.25;exitY=1;exitDx=0;exitDy=0;entryX=0.25;entryY=0;entryDx=0;entryDy=0;endArrow=none;endFill=0;startArrow=classic;startFill=1;" edge="1" parent="1">
          <mxGeometry relative="1" as="geometry">
            <mxPoint x="640" y="590" as="sourcePoint" />
            <mxPoint x="640" y="660" as="targetPoint" />
          </mxGeometry>
        </mxCell>
        <mxCell id="vGcXtfVgCB9W5I0RSvsS-65" style="edgeStyle=orthogonalEdgeStyle;rounded=0;orthogonalLoop=1;jettySize=auto;html=1;exitX=0.25;exitY=1;exitDx=0;exitDy=0;entryX=0.25;entryY=0;entryDx=0;entryDy=0;endArrow=none;endFill=0;startArrow=classic;startFill=1;" edge="1" parent="1">
          <mxGeometry relative="1" as="geometry">
            <mxPoint x="420" y="590" as="sourcePoint" />
            <mxPoint x="420" y="660" as="targetPoint" />
          </mxGeometry>
        </mxCell>
        <mxCell id="vGcXtfVgCB9W5I0RSvsS-66" value="Rotore_1_output (8x8)" style="rounded=0;whiteSpace=wrap;html=1;" vertex="1" parent="1">
          <mxGeometry x="400" y="560" width="280" height="30" as="geometry" />
        </mxCell>
        <mxCell id="vGcXtfVgCB9W5I0RSvsS-67" style="edgeStyle=orthogonalEdgeStyle;rounded=0;orthogonalLoop=1;jettySize=auto;html=1;exitX=0.5;exitY=1;exitDx=0;exitDy=0;endArrow=none;endFill=0;startArrow=classic;startFill=1;" edge="1" parent="1">
          <mxGeometry relative="1" as="geometry">
            <mxPoint x="539" y="489.9999999999999" as="sourcePoint" />
            <mxPoint x="539" y="559.9999999999999" as="targetPoint" />
          </mxGeometry>
        </mxCell>
        <mxCell id="vGcXtfVgCB9W5I0RSvsS-68" style="edgeStyle=orthogonalEdgeStyle;rounded=0;orthogonalLoop=1;jettySize=auto;html=1;exitX=0.25;exitY=1;exitDx=0;exitDy=0;entryX=0.25;entryY=0;entryDx=0;entryDy=0;endArrow=none;endFill=0;startArrow=classic;startFill=1;" edge="1" parent="1">
          <mxGeometry relative="1" as="geometry">
            <mxPoint x="476" y="489.9999999999999" as="sourcePoint" />
            <mxPoint x="476" y="559.9999999999999" as="targetPoint" />
          </mxGeometry>
        </mxCell>
        <mxCell id="vGcXtfVgCB9W5I0RSvsS-69" style="edgeStyle=orthogonalEdgeStyle;rounded=0;orthogonalLoop=1;jettySize=auto;html=1;exitX=0.75;exitY=1;exitDx=0;exitDy=0;entryX=0.75;entryY=0;entryDx=0;entryDy=0;endArrow=none;endFill=0;startArrow=classic;startFill=1;" edge="1" parent="1">
          <mxGeometry relative="1" as="geometry">
            <mxPoint x="608" y="489.9999999999999" as="sourcePoint" />
            <mxPoint x="608" y="559.9999999999999" as="targetPoint" />
          </mxGeometry>
        </mxCell>
        <mxCell id="vGcXtfVgCB9W5I0RSvsS-70" style="edgeStyle=orthogonalEdgeStyle;rounded=0;orthogonalLoop=1;jettySize=auto;html=1;exitX=0.25;exitY=1;exitDx=0;exitDy=0;entryX=0.25;entryY=0;entryDx=0;entryDy=0;endArrow=none;endFill=0;startArrow=classic;startFill=1;" edge="1" parent="1">
          <mxGeometry relative="1" as="geometry">
            <mxPoint x="507" y="490" as="sourcePoint" />
            <mxPoint x="507" y="560" as="targetPoint" />
          </mxGeometry>
        </mxCell>
        <mxCell id="vGcXtfVgCB9W5I0RSvsS-71" style="edgeStyle=orthogonalEdgeStyle;rounded=0;orthogonalLoop=1;jettySize=auto;html=1;exitX=0.25;exitY=1;exitDx=0;exitDy=0;entryX=0.25;entryY=0;entryDx=0;entryDy=0;endArrow=none;endFill=0;startArrow=classic;startFill=1;" edge="1" parent="1">
          <mxGeometry relative="1" as="geometry">
            <mxPoint x="573" y="490" as="sourcePoint" />
            <mxPoint x="573" y="560" as="targetPoint" />
          </mxGeometry>
        </mxCell>
        <mxCell id="vGcXtfVgCB9W5I0RSvsS-72" style="edgeStyle=orthogonalEdgeStyle;rounded=0;orthogonalLoop=1;jettySize=auto;html=1;exitX=0.25;exitY=1;exitDx=0;exitDy=0;entryX=0.25;entryY=0;entryDx=0;entryDy=0;endArrow=none;endFill=0;startArrow=classic;startFill=1;" edge="1" parent="1">
          <mxGeometry relative="1" as="geometry">
            <mxPoint x="447" y="490" as="sourcePoint" />
            <mxPoint x="447" y="560" as="targetPoint" />
          </mxGeometry>
        </mxCell>
        <mxCell id="vGcXtfVgCB9W5I0RSvsS-73" style="edgeStyle=orthogonalEdgeStyle;rounded=0;orthogonalLoop=1;jettySize=auto;html=1;exitX=0.25;exitY=1;exitDx=0;exitDy=0;entryX=0.25;entryY=0;entryDx=0;entryDy=0;endArrow=none;endFill=0;startArrow=classic;startFill=1;" edge="1" parent="1">
          <mxGeometry relative="1" as="geometry">
            <mxPoint x="640" y="490" as="sourcePoint" />
            <mxPoint x="640" y="560" as="targetPoint" />
          </mxGeometry>
        </mxCell>
        <mxCell id="vGcXtfVgCB9W5I0RSvsS-74" style="edgeStyle=orthogonalEdgeStyle;rounded=0;orthogonalLoop=1;jettySize=auto;html=1;exitX=0.25;exitY=1;exitDx=0;exitDy=0;entryX=0.25;entryY=0;entryDx=0;entryDy=0;endArrow=none;endFill=0;startArrow=classic;startFill=1;" edge="1" parent="1">
          <mxGeometry relative="1" as="geometry">
            <mxPoint x="420" y="490" as="sourcePoint" />
            <mxPoint x="420" y="560" as="targetPoint" />
          </mxGeometry>
        </mxCell>
        <mxCell id="vGcXtfVgCB9W5I0RSvsS-75" value="Plugboard output (8x8)" style="rounded=0;whiteSpace=wrap;html=1;" vertex="1" parent="1">
          <mxGeometry x="400" y="460" width="280" height="30" as="geometry" />
        </mxCell>
        <mxCell id="vGcXtfVgCB9W5I0RSvsS-76" style="edgeStyle=orthogonalEdgeStyle;rounded=0;orthogonalLoop=1;jettySize=auto;html=1;exitX=0.5;exitY=1;exitDx=0;exitDy=0;" edge="1" parent="1">
          <mxGeometry relative="1" as="geometry">
            <mxPoint x="219" y="389.9999999999999" as="sourcePoint" />
            <mxPoint x="219" y="459.9999999999999" as="targetPoint" />
          </mxGeometry>
        </mxCell>
        <mxCell id="vGcXtfVgCB9W5I0RSvsS-77" style="edgeStyle=orthogonalEdgeStyle;rounded=0;orthogonalLoop=1;jettySize=auto;html=1;exitX=0.25;exitY=1;exitDx=0;exitDy=0;entryX=0.25;entryY=0;entryDx=0;entryDy=0;" edge="1" parent="1">
          <mxGeometry relative="1" as="geometry">
            <mxPoint x="156" y="389.9999999999999" as="sourcePoint" />
            <mxPoint x="156" y="459.9999999999999" as="targetPoint" />
          </mxGeometry>
        </mxCell>
        <mxCell id="vGcXtfVgCB9W5I0RSvsS-78" style="edgeStyle=orthogonalEdgeStyle;rounded=0;orthogonalLoop=1;jettySize=auto;html=1;exitX=0.75;exitY=1;exitDx=0;exitDy=0;entryX=0.75;entryY=0;entryDx=0;entryDy=0;" edge="1" parent="1">
          <mxGeometry relative="1" as="geometry">
            <mxPoint x="288" y="389.9999999999999" as="sourcePoint" />
            <mxPoint x="288" y="459.9999999999999" as="targetPoint" />
          </mxGeometry>
        </mxCell>
        <mxCell id="vGcXtfVgCB9W5I0RSvsS-79" value="Tastiera (2x8)" style="rounded=0;whiteSpace=wrap;html=1;" vertex="1" parent="1">
          <mxGeometry x="80" y="360" width="280" height="30" as="geometry" />
        </mxCell>
        <mxCell id="vGcXtfVgCB9W5I0RSvsS-80" style="edgeStyle=orthogonalEdgeStyle;rounded=0;orthogonalLoop=1;jettySize=auto;html=1;exitX=0.25;exitY=1;exitDx=0;exitDy=0;entryX=0.25;entryY=0;entryDx=0;entryDy=0;" edge="1" parent="1">
          <mxGeometry relative="1" as="geometry">
            <mxPoint x="187" y="390" as="sourcePoint" />
            <mxPoint x="187" y="460" as="targetPoint" />
          </mxGeometry>
        </mxCell>
        <mxCell id="vGcXtfVgCB9W5I0RSvsS-81" style="edgeStyle=orthogonalEdgeStyle;rounded=0;orthogonalLoop=1;jettySize=auto;html=1;exitX=0.25;exitY=1;exitDx=0;exitDy=0;entryX=0.25;entryY=0;entryDx=0;entryDy=0;" edge="1" parent="1">
          <mxGeometry relative="1" as="geometry">
            <mxPoint x="253" y="390" as="sourcePoint" />
            <mxPoint x="253" y="460" as="targetPoint" />
          </mxGeometry>
        </mxCell>
        <mxCell id="vGcXtfVgCB9W5I0RSvsS-82" style="edgeStyle=orthogonalEdgeStyle;rounded=0;orthogonalLoop=1;jettySize=auto;html=1;exitX=0.25;exitY=1;exitDx=0;exitDy=0;entryX=0.25;entryY=0;entryDx=0;entryDy=0;" edge="1" parent="1">
          <mxGeometry relative="1" as="geometry">
            <mxPoint x="127" y="390" as="sourcePoint" />
            <mxPoint x="127" y="460" as="targetPoint" />
          </mxGeometry>
        </mxCell>
        <mxCell id="vGcXtfVgCB9W5I0RSvsS-83" style="edgeStyle=orthogonalEdgeStyle;rounded=0;orthogonalLoop=1;jettySize=auto;html=1;exitX=0.25;exitY=1;exitDx=0;exitDy=0;entryX=0.25;entryY=0;entryDx=0;entryDy=0;" edge="1" parent="1">
          <mxGeometry relative="1" as="geometry">
            <mxPoint x="320" y="390" as="sourcePoint" />
            <mxPoint x="320" y="460" as="targetPoint" />
          </mxGeometry>
        </mxCell>
        <mxCell id="vGcXtfVgCB9W5I0RSvsS-84" style="edgeStyle=orthogonalEdgeStyle;rounded=0;orthogonalLoop=1;jettySize=auto;html=1;exitX=0.25;exitY=1;exitDx=0;exitDy=0;entryX=0.25;entryY=0;entryDx=0;entryDy=0;" edge="1" parent="1">
          <mxGeometry relative="1" as="geometry">
            <mxPoint x="100" y="390" as="sourcePoint" />
            <mxPoint x="100" y="460" as="targetPoint" />
          </mxGeometry>
        </mxCell>
        <mxCell id="vGcXtfVgCB9W5I0RSvsS-90" style="edgeStyle=orthogonalEdgeStyle;rounded=0;orthogonalLoop=1;jettySize=auto;html=1;exitX=0.5;exitY=1;exitDx=0;exitDy=0;endArrow=none;endFill=0;startArrow=classic;startFill=1;" edge="1" parent="1">
          <mxGeometry relative="1" as="geometry">
            <mxPoint x="539" y="389.9999999999999" as="sourcePoint" />
            <mxPoint x="539" y="459.9999999999999" as="targetPoint" />
          </mxGeometry>
        </mxCell>
        <mxCell id="vGcXtfVgCB9W5I0RSvsS-91" style="edgeStyle=orthogonalEdgeStyle;rounded=0;orthogonalLoop=1;jettySize=auto;html=1;exitX=0.25;exitY=1;exitDx=0;exitDy=0;entryX=0.25;entryY=0;entryDx=0;entryDy=0;endArrow=none;endFill=0;startArrow=classic;startFill=1;" edge="1" parent="1">
          <mxGeometry relative="1" as="geometry">
            <mxPoint x="476" y="389.9999999999999" as="sourcePoint" />
            <mxPoint x="476" y="459.9999999999999" as="targetPoint" />
          </mxGeometry>
        </mxCell>
        <mxCell id="vGcXtfVgCB9W5I0RSvsS-92" style="edgeStyle=orthogonalEdgeStyle;rounded=0;orthogonalLoop=1;jettySize=auto;html=1;exitX=0.75;exitY=1;exitDx=0;exitDy=0;entryX=0.75;entryY=0;entryDx=0;entryDy=0;endArrow=none;endFill=0;startArrow=classic;startFill=1;" edge="1" parent="1">
          <mxGeometry relative="1" as="geometry">
            <mxPoint x="608" y="389.9999999999999" as="sourcePoint" />
            <mxPoint x="608" y="459.9999999999999" as="targetPoint" />
          </mxGeometry>
        </mxCell>
        <mxCell id="vGcXtfVgCB9W5I0RSvsS-93" style="edgeStyle=orthogonalEdgeStyle;rounded=0;orthogonalLoop=1;jettySize=auto;html=1;exitX=0.25;exitY=1;exitDx=0;exitDy=0;entryX=0.25;entryY=0;entryDx=0;entryDy=0;endArrow=none;endFill=0;startArrow=classic;startFill=1;" edge="1" parent="1">
          <mxGeometry relative="1" as="geometry">
            <mxPoint x="507" y="390" as="sourcePoint" />
            <mxPoint x="507" y="460" as="targetPoint" />
          </mxGeometry>
        </mxCell>
        <mxCell id="vGcXtfVgCB9W5I0RSvsS-94" style="edgeStyle=orthogonalEdgeStyle;rounded=0;orthogonalLoop=1;jettySize=auto;html=1;exitX=0.25;exitY=1;exitDx=0;exitDy=0;entryX=0.25;entryY=0;entryDx=0;entryDy=0;endArrow=none;endFill=0;startArrow=classic;startFill=1;" edge="1" parent="1">
          <mxGeometry relative="1" as="geometry">
            <mxPoint x="573" y="390" as="sourcePoint" />
            <mxPoint x="573" y="460" as="targetPoint" />
          </mxGeometry>
        </mxCell>
        <mxCell id="vGcXtfVgCB9W5I0RSvsS-95" style="edgeStyle=orthogonalEdgeStyle;rounded=0;orthogonalLoop=1;jettySize=auto;html=1;exitX=0.25;exitY=1;exitDx=0;exitDy=0;entryX=0.25;entryY=0;entryDx=0;entryDy=0;endArrow=none;endFill=0;startArrow=classic;startFill=1;" edge="1" parent="1">
          <mxGeometry relative="1" as="geometry">
            <mxPoint x="447" y="390" as="sourcePoint" />
            <mxPoint x="447" y="460" as="targetPoint" />
          </mxGeometry>
        </mxCell>
        <mxCell id="vGcXtfVgCB9W5I0RSvsS-96" style="edgeStyle=orthogonalEdgeStyle;rounded=0;orthogonalLoop=1;jettySize=auto;html=1;exitX=0.25;exitY=1;exitDx=0;exitDy=0;entryX=0.25;entryY=0;entryDx=0;entryDy=0;endArrow=none;endFill=0;startArrow=classic;startFill=1;" edge="1" parent="1">
          <mxGeometry relative="1" as="geometry">
            <mxPoint x="640" y="390" as="sourcePoint" />
            <mxPoint x="640" y="460" as="targetPoint" />
          </mxGeometry>
        </mxCell>
        <mxCell id="vGcXtfVgCB9W5I0RSvsS-97" style="edgeStyle=orthogonalEdgeStyle;rounded=0;orthogonalLoop=1;jettySize=auto;html=1;exitX=0.25;exitY=1;exitDx=0;exitDy=0;entryX=0.25;entryY=0;entryDx=0;entryDy=0;endArrow=none;endFill=0;startArrow=classic;startFill=1;" edge="1" parent="1">
          <mxGeometry relative="1" as="geometry">
            <mxPoint x="420" y="390" as="sourcePoint" />
            <mxPoint x="420" y="460" as="targetPoint" />
          </mxGeometry>
        </mxCell>
        <mxCell id="vGcXtfVgCB9W5I0RSvsS-98" value="Output (9x9)" style="rounded=0;whiteSpace=wrap;html=1;" vertex="1" parent="1">
          <mxGeometry x="400" y="360" width="280" height="30" as="geometry" />
        </mxCell>
        <mxCell id="vGcXtfVgCB9W5I0RSvsS-99" value="" style="pointerEvents=1;verticalLabelPosition=bottom;shadow=0;dashed=0;align=center;html=1;verticalAlign=top;shape=mxgraph.electrical.electro-mechanical.loudspeaker;rotation=-90;" vertex="1" parent="1">
          <mxGeometry x="399" y="260" width="31.5" height="35" as="geometry" />
        </mxCell>
        <mxCell id="vGcXtfVgCB9W5I0RSvsS-100" value="" style="pointerEvents=1;verticalLabelPosition=bottom;shadow=0;dashed=0;align=center;html=1;verticalAlign=top;shape=mxgraph.electrical.electro-mechanical.loudspeaker;rotation=-90;" vertex="1" parent="1">
          <mxGeometry x="430.5" y="260" width="31.5" height="35" as="geometry" />
        </mxCell>
        <mxCell id="vGcXtfVgCB9W5I0RSvsS-101" value="" style="pointerEvents=1;verticalLabelPosition=bottom;shadow=0;dashed=0;align=center;html=1;verticalAlign=top;shape=mxgraph.electrical.electro-mechanical.loudspeaker;rotation=-90;" vertex="1" parent="1">
          <mxGeometry x="462" y="260" width="31.5" height="35" as="geometry" />
        </mxCell>
        <mxCell id="vGcXtfVgCB9W5I0RSvsS-102" value="" style="pointerEvents=1;verticalLabelPosition=bottom;shadow=0;dashed=0;align=center;html=1;verticalAlign=top;shape=mxgraph.electrical.electro-mechanical.loudspeaker;rotation=-90;" vertex="1" parent="1">
          <mxGeometry x="493.5" y="260" width="31.5" height="35" as="geometry" />
        </mxCell>
        <mxCell id="vGcXtfVgCB9W5I0RSvsS-103" value="" style="pointerEvents=1;verticalLabelPosition=bottom;shadow=0;dashed=0;align=center;html=1;verticalAlign=top;shape=mxgraph.electrical.electro-mechanical.loudspeaker;rotation=-90;" vertex="1" parent="1">
          <mxGeometry x="529" y="260" width="31.5" height="35" as="geometry" />
        </mxCell>
        <mxCell id="vGcXtfVgCB9W5I0RSvsS-104" value="" style="pointerEvents=1;verticalLabelPosition=bottom;shadow=0;dashed=0;align=center;html=1;verticalAlign=top;shape=mxgraph.electrical.electro-mechanical.loudspeaker;rotation=-90;" vertex="1" parent="1">
          <mxGeometry x="560.5" y="260" width="31.5" height="35" as="geometry" />
        </mxCell>
        <mxCell id="vGcXtfVgCB9W5I0RSvsS-105" value="" style="pointerEvents=1;verticalLabelPosition=bottom;shadow=0;dashed=0;align=center;html=1;verticalAlign=top;shape=mxgraph.electrical.electro-mechanical.loudspeaker;rotation=-90;" vertex="1" parent="1">
          <mxGeometry x="592" y="260" width="31.5" height="35" as="geometry" />
        </mxCell>
        <mxCell id="vGcXtfVgCB9W5I0RSvsS-106" value="" style="pointerEvents=1;verticalLabelPosition=bottom;shadow=0;dashed=0;align=center;html=1;verticalAlign=top;shape=mxgraph.electrical.electro-mechanical.loudspeaker;rotation=-90;" vertex="1" parent="1">
          <mxGeometry x="623.5" y="260" width="31.5" height="35" as="geometry" />
        </mxCell>
        <mxCell id="vGcXtfVgCB9W5I0RSvsS-115" style="edgeStyle=orthogonalEdgeStyle;rounded=0;orthogonalLoop=1;jettySize=auto;html=1;exitX=0.5;exitY=1;exitDx=0;exitDy=0;endArrow=none;endFill=0;startArrow=classic;startFill=1;" edge="1" parent="1">
          <mxGeometry relative="1" as="geometry">
            <mxPoint x="539" y="289.9999999999999" as="sourcePoint" />
            <mxPoint x="539" y="359.9999999999999" as="targetPoint" />
          </mxGeometry>
        </mxCell>
        <mxCell id="vGcXtfVgCB9W5I0RSvsS-116" style="edgeStyle=orthogonalEdgeStyle;rounded=0;orthogonalLoop=1;jettySize=auto;html=1;exitX=0.25;exitY=1;exitDx=0;exitDy=0;entryX=0.25;entryY=0;entryDx=0;entryDy=0;endArrow=none;endFill=0;startArrow=classic;startFill=1;" edge="1" parent="1">
          <mxGeometry relative="1" as="geometry">
            <mxPoint x="476" y="289.9999999999999" as="sourcePoint" />
            <mxPoint x="476" y="359.9999999999999" as="targetPoint" />
          </mxGeometry>
        </mxCell>
        <mxCell id="vGcXtfVgCB9W5I0RSvsS-117" style="edgeStyle=orthogonalEdgeStyle;rounded=0;orthogonalLoop=1;jettySize=auto;html=1;exitX=0.75;exitY=1;exitDx=0;exitDy=0;entryX=0.75;entryY=0;entryDx=0;entryDy=0;endArrow=none;endFill=0;startArrow=classic;startFill=1;" edge="1" parent="1">
          <mxGeometry relative="1" as="geometry">
            <mxPoint x="608" y="289.9999999999999" as="sourcePoint" />
            <mxPoint x="608" y="359.9999999999999" as="targetPoint" />
          </mxGeometry>
        </mxCell>
        <mxCell id="vGcXtfVgCB9W5I0RSvsS-118" style="edgeStyle=orthogonalEdgeStyle;rounded=0;orthogonalLoop=1;jettySize=auto;html=1;exitX=0.25;exitY=1;exitDx=0;exitDy=0;entryX=0.25;entryY=0;entryDx=0;entryDy=0;endArrow=none;endFill=0;startArrow=classic;startFill=1;" edge="1" parent="1">
          <mxGeometry relative="1" as="geometry">
            <mxPoint x="507" y="290" as="sourcePoint" />
            <mxPoint x="507" y="360" as="targetPoint" />
          </mxGeometry>
        </mxCell>
        <mxCell id="vGcXtfVgCB9W5I0RSvsS-119" style="edgeStyle=orthogonalEdgeStyle;rounded=0;orthogonalLoop=1;jettySize=auto;html=1;exitX=0.25;exitY=1;exitDx=0;exitDy=0;entryX=0.25;entryY=0;entryDx=0;entryDy=0;endArrow=none;endFill=0;startArrow=classic;startFill=1;" edge="1" parent="1">
          <mxGeometry relative="1" as="geometry">
            <mxPoint x="573" y="290" as="sourcePoint" />
            <mxPoint x="573" y="360" as="targetPoint" />
          </mxGeometry>
        </mxCell>
        <mxCell id="vGcXtfVgCB9W5I0RSvsS-120" style="edgeStyle=orthogonalEdgeStyle;rounded=0;orthogonalLoop=1;jettySize=auto;html=1;exitX=0.25;exitY=1;exitDx=0;exitDy=0;entryX=0.25;entryY=0;entryDx=0;entryDy=0;endArrow=none;endFill=0;startArrow=classic;startFill=1;" edge="1" parent="1">
          <mxGeometry relative="1" as="geometry">
            <mxPoint x="447" y="290" as="sourcePoint" />
            <mxPoint x="447" y="360" as="targetPoint" />
          </mxGeometry>
        </mxCell>
        <mxCell id="vGcXtfVgCB9W5I0RSvsS-121" style="edgeStyle=orthogonalEdgeStyle;rounded=0;orthogonalLoop=1;jettySize=auto;html=1;exitX=0.25;exitY=1;exitDx=0;exitDy=0;entryX=0.25;entryY=0;entryDx=0;entryDy=0;endArrow=none;endFill=0;startArrow=classic;startFill=1;" edge="1" parent="1">
          <mxGeometry relative="1" as="geometry">
            <mxPoint x="640" y="290" as="sourcePoint" />
            <mxPoint x="640" y="360" as="targetPoint" />
          </mxGeometry>
        </mxCell>
        <mxCell id="vGcXtfVgCB9W5I0RSvsS-122" style="edgeStyle=orthogonalEdgeStyle;rounded=0;orthogonalLoop=1;jettySize=auto;html=1;exitX=0.25;exitY=1;exitDx=0;exitDy=0;entryX=0.25;entryY=0;entryDx=0;entryDy=0;endArrow=none;endFill=0;startArrow=classic;startFill=1;" edge="1" parent="1">
          <mxGeometry relative="1" as="geometry">
            <mxPoint x="420" y="290" as="sourcePoint" />
            <mxPoint x="420" y="360" as="targetPoint" />
          </mxGeometry>
        </mxCell>
        <mxCell id="vGcXtfVgCB9W5I0RSvsS-124" value="" style="sketch=0;aspect=fixed;pointerEvents=1;shadow=0;dashed=0;html=1;strokeColor=none;labelPosition=center;verticalLabelPosition=bottom;verticalAlign=top;align=center;fillColor=#000726;shape=mxgraph.mscae.enterprise.keyboard" vertex="1" parent="1">
          <mxGeometry x="720" y="460" width="50" height="30" as="geometry" />
        </mxCell>
        <mxCell id="vGcXtfVgCB9W5I0RSvsS-125" style="edgeStyle=orthogonalEdgeStyle;rounded=0;orthogonalLoop=1;jettySize=auto;html=1;exitX=0.5;exitY=0;exitDx=0;exitDy=0;exitPerimeter=0;entryX=0.945;entryY=1.03;entryDx=0;entryDy=0;entryPerimeter=0;" edge="1" parent="1" source="vGcXtfVgCB9W5I0RSvsS-124" target="vGcXtfVgCB9W5I0RSvsS-98">
          <mxGeometry relative="1" as="geometry" />
        </mxCell>
        <mxCell id="vGcXtfVgCB9W5I0RSvsS-126" value="" style="pointerEvents=1;verticalLabelPosition=bottom;shadow=0;dashed=0;align=center;html=1;verticalAlign=top;shape=mxgraph.electrical.electro-mechanical.loudspeaker;rotation=0;" vertex="1" parent="1">
          <mxGeometry x="682" y="273" width="31.5" height="35" as="geometry" />
        </mxCell>
        <mxCell id="vGcXtfVgCB9W5I0RSvsS-127" style="edgeStyle=orthogonalEdgeStyle;rounded=0;orthogonalLoop=1;jettySize=auto;html=1;entryX=0.25;entryY=0;entryDx=0;entryDy=0;endArrow=none;endFill=0;startArrow=classic;startFill=1;" edge="1" parent="1">
          <mxGeometry relative="1" as="geometry">
            <mxPoint x="690" y="290" as="sourcePoint" />
            <mxPoint x="670" y="360" as="targetPoint" />
            <Array as="points">
              <mxPoint x="670" y="310" />
              <mxPoint x="670" y="310" />
            </Array>
          </mxGeometry>
        </mxCell>
      </root>
    </mxGraphModel>
  </diagram>
</mxfile>
